<?xml version="1.0" encoding="utf-8"?>
<!-- Generator: Adobe Illustrator 21.1.0, SVG Export Plug-In . SVG Version: 6.00 Build 0)  -->
<svg version="1.1" id="圖層_1" xmlns="http://www.w3.org/2000/svg" xmlns:xlink="http://www.w3.org/1999/xlink" x="0px" y="0px"
	 viewBox="0 0 28 28" style="enable-background:new 0 0 28 28;" xml:space="preserve">
<style type="text/css">
	.st0{fill:#EF1DA8;}
</style>
<g id="LkAFln_16_">
	<g>
		<path class="st0" d="M14.1,11.3c3.9,0,7.8,0,11.7,0c1.3,0,1.8,0.5,1.8,1.8c0,0.6,0,1.3,0,1.9c0,1.2-0.5,1.7-1.7,1.7
			c-4.8,0-9.7,0-14.5,0c-3,0-6,0-9,0c-1.3,0-1.8-0.5-1.8-1.8c0-0.6,0-1.3,0-1.9c0-1.2,0.5-1.7,1.7-1.7C6.1,11.3,10.1,11.3,14.1,11.3
			z"/>
	</g>
</g>
</svg>
