<?xml version="1.0" encoding="utf-8"?>
<!-- Generator: Adobe Illustrator 21.1.0, SVG Export Plug-In . SVG Version: 6.00 Build 0)  -->
<svg version="1.1" id="圖層_1" xmlns="http://www.w3.org/2000/svg" xmlns:xlink="http://www.w3.org/1999/xlink" x="0px" y="0px"
	 viewBox="0 0 28 28" style="enable-background:new 0 0 28 28;" xml:space="preserve">
<style type="text/css">
	.st0{fill:#EF1DA8;}
</style>
<g id="z4x0Y3_16_">
	<g>
		<path class="st0" d="M16.8,11.3c3.1,0,6.2,0,9.2,0c1.6,0,2,0.4,2,2c0,0.6,0,1.3,0,1.9c0,1.1-0.5,1.6-1.7,1.6c-2.8,0-5.7,0-8.5,0
			c-0.3,0-0.6,0-1,0c0,0.6,0,1.1,0,1.6c0,2.6,0,5.2,0,7.9c0,1.2-0.5,1.7-1.7,1.7c-0.7,0-1.5,0-2.2,0c-1.2,0-1.7-0.5-1.7-1.7
			c0-2.8,0-5.6,0-8.4c0-0.3,0-0.6,0-1.1c-0.3,0-0.6,0-0.9,0c-2.8,0-5.6,0-8.4,0C0.5,16.9,0,16.4,0,15c0-0.7,0-1.3,0-2
			c0-1.2,0.5-1.7,1.7-1.7c3.1,0,6.2,0,9.5,0c0-0.3,0-0.7,0-1c0-2.8,0-5.7,0-8.5c0-1.3,0.5-1.7,1.7-1.8c0.7,0,1.4,0,2.1,0
			c1.3,0,1.8,0.5,1.8,1.7c0,2.8,0,5.6,0,8.4C16.8,10.5,16.8,10.8,16.8,11.3z"/>
	</g>
</g>
</svg>
