<?xml version="1.0" encoding="utf-8"?>
<!-- Generator: Adobe Illustrator 21.1.0, SVG Export Plug-In . SVG Version: 6.00 Build 0)  -->
<svg version="1.1" id="圖層_1" xmlns="http://www.w3.org/2000/svg" xmlns:xlink="http://www.w3.org/1999/xlink" x="0px" y="0px"
	 viewBox="0 0 28 28" style="enable-background:new 0 0 28 28;" xml:space="preserve">
<style type="text/css">
	.st0{fill:#E47071;}
	.st1{fill:#FFFFFF;stroke:#E0433A;stroke-width:0.25;stroke-miterlimit:10;}
</style>
<path class="st0" d="M20.4,18.8c0,0.8-0.7,1.5-1.5,1.5h-1.3v1.2H19c1.5,0,2.7-1.2,2.7-2.7v-1.4h-1.2V18.8z"/>
<path class="st0" d="M19,6.2h-1.3v1.2H19c0.8,0,1.5,0.7,1.5,1.5v1.3h1.2V8.9C21.7,7.4,20.5,6.2,19,6.2z"/>
<circle class="st0" cx="14" cy="13.8" r="2.4"/>
<circle class="st1" cx="14.1" cy="13.9" r="1.7"/>
<path class="st0" d="M7.6,18.8v-1.4H6.4v1.4c0,1.5,1.2,2.7,2.7,2.7h1.3v-1.2H9.1C8.3,20.2,7.6,19.6,7.6,18.8z"/>
<path class="st0" d="M9.1,6.2c-1.5,0-2.7,1.2-2.7,2.7v1.3h1.2V8.9c0-0.8,0.7-1.5,1.5-1.5h1.3V6.2H9.1z"/>
<path class="st1" d="M9.9,20.5H9.1c-1,0-1.8-0.8-1.8-1.8v-1H6.7v1c0,1.3,1.1,2.4,2.4,2.4h0.8V20.5z"/>
<path class="st1" d="M20.8,17.7v1c0,1-0.8,1.8-1.8,1.8h-0.8v0.6H19c1.3,0,2.4-1.1,2.4-2.4v-1H20.8z"/>
<path class="st1" d="M19,6.5h-0.8v0.6H19c1,0,1.8,0.8,1.8,1.8v0.9h0.6V8.9C21.4,7.6,20.3,6.5,19,6.5z"/>
<path class="st1" d="M9.9,6.5H9.1c-1.3,0-2.4,1.1-2.4,2.4v0.9h0.6V8.9c0-1,0.8-1.8,1.8-1.8h0.8V6.5z"/>
</svg>
