<?xml version="1.0" encoding="utf-8"?>
<!-- Generator: Adobe Illustrator 21.1.0, SVG Export Plug-In . SVG Version: 6.00 Build 0)  -->
<svg version="1.1" id="圖層_1" xmlns="http://www.w3.org/2000/svg" xmlns:xlink="http://www.w3.org/1999/xlink" x="0px" y="0px"
	 viewBox="0 0 265 98" style="enable-background:new 0 0 265 98;" xml:space="preserve">
<style type="text/css">
	.st0{fill:#34D5FF;}
	.st1{fill:#86FFFF;}
</style>
<g>
	<g>
		<path class="st0" d="M174.2,96.3c0,1.2-1.4,2.2-3.1,2.2H10.6c-3.6,0-6.8-1.4-8.7-3.8c-2.1-2.7-2-6.1,0.4-8.7l31.6-34.6
			c1.2-1.3,1.2-3.1,0-4.4L2.4,12.4C0,9.9-0.1,6.5,2,3.8C3.8,1.4,7.1,0,10.6,0h24.5c1.7,0,3.1,1,3.1,2.2v0c0,1.2-1.4,2.2-3.1,2.2
			H10.6c-1.8,0-2.9,1.1-3.2,1.5c-1,1.3-1,3,0.2,4.2l31.6,34.6c2.5,2.7,2.5,6.4,0,9.1L7.6,88.4c-1.1,1.2-1.2,2.9-0.2,4.2
			c0.4,0.5,1.4,1.5,3.2,1.5h160.5C172.9,94.1,174.2,95.1,174.2,96.3L174.2,96.3z"/>
	</g>
</g>
<g>
	<g>
		<path class="st0" d="M217.9,98.5h-21.6c-1.7,0-3.1-1-3.1-2.2v0c0-1.2,1.4-2.2,3.1-2.2h21.6c1.2,0,2.3-0.5,3-1.3L257.3,53
			c1.9-2.1,1.9-5.1,0-7.2L221.8,6.6c-1.3-1.4-3.3-2.3-5.4-2.3H69.6c-1.7,0-3.1-1-3.1-2.2v0C66.5,1,67.8,0,69.6,0h146.8
			c4.2,0,8.2,1.6,10.6,4.3l35.6,39.1c3.2,3.6,3.2,8.4,0,11.9l-36.4,39.9C224.2,97.3,221.1,98.5,217.9,98.5z"/>
	</g>
</g>
<g>
	<g>
		<path class="st1" d="M169.7,96.5c0,0.5-0.6,0.9-1.3,0.9H10.2c-2.9,0-5.5-1.2-7.1-3.1C1.4,92,1.5,89.1,3.5,87L35,52.3
			c1.6-1.7,1.6-4.1,0-5.8L3.5,11.9c-2-2.2-2.1-5.1-0.3-7.4c1.5-1.9,4.2-3.1,7.1-3.1h21.1c0.7,0,1.3,0.4,1.3,0.9v0
			c0,0.5-0.6,0.9-1.3,0.9H10.2c-2,0-3.7,0.8-4.8,2.2C4.1,7.2,4.2,9.3,5.6,11l31.6,34.6c2.1,2.3,2.1,5.4,0,7.7L5.6,87.9
			c-1.5,1.6-1.6,3.8-0.2,5.5c1.1,1.4,2.8,2.2,4.8,2.2h158.2C169.1,95.6,169.7,96,169.7,96.5L169.7,96.5z"/>
	</g>
</g>
<g>
	<path class="st1" d="M216.8,97.2h-19.2c-0.7,0-1.3-0.4-1.3-0.9l0,0c0-0.5,0.6-0.9,1.3-0.9h19.2c1.8,0,3.5-0.7,4.6-1.9l36.4-39.9
		c2.3-2.5,2.3-6.1,0-8.6L222.3,5.9c-1.6-1.8-4.2-2.9-6.9-2.9H76c-0.7,0-1.3-0.4-1.3-0.9v0c0-0.5,0.6-0.9,1.3-0.9h139.3
		c3.6,0,7,1.4,9.1,3.7L260,44.1c2.9,3.2,2.9,7.4,0,10.5l-36.4,39.9C222,96.2,219.5,97.2,216.8,97.2z"/>
</g>
</svg>
