<?xml version="1.0" encoding="utf-8"?>
<!-- Generator: Adobe Illustrator 21.1.0, SVG Export Plug-In . SVG Version: 6.00 Build 0)  -->
<svg version="1.1" id="圖層_1" xmlns="http://www.w3.org/2000/svg" xmlns:xlink="http://www.w3.org/1999/xlink" x="0px" y="0px"
	 viewBox="0 0 65 65" style="enable-background:new 0 0 65 65;" xml:space="preserve">
<style type="text/css">
	.st0{fill:#82403F;}
	.st1{fill:#8C8C8C;stroke:#7B4140;stroke-miterlimit:10;}
</style>
<g>
	<g>
		<path class="st0" d="M32.4,64.1c-2.5,0-5-0.3-7.4-0.9C9.7,59.6-1.1,45.1,0.1,29.4c1-13.5,10.1-24.6,22.4-28.5
			c2.3-0.7,4.7,0.7,5.1,3.1v0c0.3,1.9-0.7,3.8-2.6,4.4C16.8,11,10.6,17.6,8.6,26.1c-3.1,13.1,5.1,26.3,18.2,29.4
			c8.8,2.1,17.9-0.7,24.3-7.9c0.8-0.9,1.4-1.8,2-2.7c8.5-14.1,1.7-30.7-11.9-36c-1.8-0.7-2.8-2.7-2.3-4.5l0,0c0.5-2.3,3-3.6,5.3-2.8
			c17.4,6.8,26.4,27.6,16.6,45.9c-1.3,2.4-2.9,4.6-4.7,6.5C49.4,60.6,41,64.1,32.4,64.1z"/>
	</g>
</g>
<g>
	<g>
		<path class="st1" d="M32.6,62.7c-2.8,0-5.6-0.4-8.4-1.2C10.4,57.6,0.9,44.3,1.9,29.9C2.8,16.4,12.2,5.4,24.8,2.1
			c1.3-0.4,2.7,0.5,2.9,1.9l0,0c0.2,1.2-0.5,2.4-1.7,2.7C16.7,9.1,9.5,16.5,7.3,25.9c-3.3,14,5.4,28,19.4,31.3
			c14,3.3,28-5.4,31.3-19.4c3.1-13.3-4.5-26.6-17.3-30.7c-1.2-0.4-1.8-1.6-1.6-2.8v0c0.3-1.4,1.7-2.1,3.1-1.7
			c15,4.9,24.1,20.7,20.4,36.3C59.2,53.1,46.5,62.7,32.6,62.7z"/>
	</g>
</g>
</svg>
