<?xml version="1.0" encoding="utf-8"?>
<!-- Generator: Adobe Illustrator 21.1.0, SVG Export Plug-In . SVG Version: 6.00 Build 0)  -->
<svg version="1.1" id="圖層_1" xmlns="http://www.w3.org/2000/svg" xmlns:xlink="http://www.w3.org/1999/xlink" x="0px" y="0px"
	 viewBox="0 0 28 28" style="enable-background:new 0 0 28 28;" xml:space="preserve">
<style type="text/css">
	.st0{fill:#E47071;}
	.st1{fill:#FFFFFF;stroke:#E0433A;stroke-width:0.25;stroke-miterlimit:10;}
</style>
<path class="st0" d="M28.1,13.3c0,2.8-3.6,5.1-9,6v-2c4.2-0.8,7-2.4,7-3.9c0-2.1-5.1-4.4-12-4.4c-6.9,0-12,2.3-12,4.4
	c0,1.8,4.1,3.9,10,4.3v-1.9l4.6,2.7L12,21v-1.5c-6.9-0.4-12-3-12-6.3c0-3.6,6-6.4,14-6.4C22.1,6.9,28.1,9.7,28.1,13.3z"/>
<path class="st1" d="M14,7.6C6.5,7.6,0.7,10,0.7,13.2c0,2.9,4.8,5.3,11.7,5.5v1.7l3.1-2l-3.1-2v1.8c-6.4-0.3-11.2-2.5-11.2-5
	C1.1,10.4,7,8.1,14,8.1s12.8,2.3,12.8,5.1c0,1.9-2.7,3.5-6.6,4.4v0.5c4.2-0.9,7.1-2.8,7.1-4.9C27.3,10.1,21.4,7.6,14,7.6z
	 M12.9,17.3l1.8,1.1l-1.8,1.1V17.3z"/>
</svg>
