<?xml version="1.0" encoding="utf-8"?>
<!-- Generator: Adobe Illustrator 21.1.0, SVG Export Plug-In . SVG Version: 6.00 Build 0)  -->
<svg version="1.1" id="圖層_1" xmlns="http://www.w3.org/2000/svg" xmlns:xlink="http://www.w3.org/1999/xlink" x="0px" y="0px"
	 viewBox="0 0 28 28" style="enable-background:new 0 0 28 28;" xml:space="preserve">
<style type="text/css">
	.st0{fill:#EF1DA8;}
	.st1{fill:#FFFFFF;}
</style>
<g id="LX5ET3_1_">
	<g>
		<path class="st0" d="M0.1,13.1c0-0.3,0.1-0.5,0.1-0.8C0.4,11,1,9,1.6,7.8c1.5-3,3.8-5.1,6.8-6.5c1.3-0.6,2.6-0.9,4-1.1
			c3.3-0.3,6.4,0.4,9.3,2.3c0.7,0.5,1.4,1.1,2,1.6c0,0,0.1,0.1,0.1,0.1L28,0v10.9l-10.7-0.1l4.2-4.2c-0.5-0.4-0.9-0.8-1.3-1.1
			c-2.4-1.8-5.2-2.5-8.4-1.9c-3.2,0.7-6,2.8-7.5,5.8c-1.5,3-1.5,6.1-0.1,9.1c1.6,3.3,4.2,5.3,7.7,5.9c3.4,0.6,6.4-0.3,9-2.6
			c0.2-0.1,0.3-0.3,0.4-0.4c0.6-0.6,1.6-0.6,2.2,0c0.6,0.6,0.6,1.6,0,2.2c-2.2,2.2-4.9,3.6-8.1,4c-4.1,0.5-8.3-0.9-11.3-3.8
			c-2.3-2.2-3.6-4.9-4.1-8.1c0-0.3-0.1-0.7-0.1-1C0.1,14.2,0.1,13.6,0.1,13.1z"/>
	</g>
</g>
</svg>
