<?xml version="1.0" encoding="utf-8"?>
<!-- Generator: Adobe Illustrator 21.1.0, SVG Export Plug-In . SVG Version: 6.00 Build 0)  -->
<svg version="1.1" id="圖層_1" xmlns="http://www.w3.org/2000/svg" xmlns:xlink="http://www.w3.org/1999/xlink" x="0px" y="0px"
	 viewBox="0 0 28 28" style="enable-background:new 0 0 28 28;" xml:space="preserve">
<style type="text/css">
	.st0{fill:#EF1DA8;}
</style>
<g id="F7KBIK_1_">
	<g>
		<path class="st0" d="M4.2,6.4c6.9,0,13.6,0,20.4,0C23.8,13.6,23,20.8,22.3,28c-5.2,0-10.3,0-15.6,0C5.9,20.8,5,13.6,4.2,6.4z
			 M18.2,24.1C18.2,24.1,18.2,24.1,18.2,24.1c0,0.1,0,0.1,0,0.2c0,0.9,0.3,1.4,1,1.5c0.6,0,1-0.4,1.1-1.3c0.1-1.5,0.2-3.1,0.4-4.6
			c0.2-3.3,0.5-6.6,0.7-9.9c0.1-0.7-0.3-1.2-0.9-1.3c-0.6-0.1-1.1,0.4-1.1,1.3C18.9,14.6,18.5,19.3,18.2,24.1z M7.3,10.3
			c0.2,2.6,0.5,5.4,0.8,8.3c0.2,2.1,0.4,4.2,0.6,6.2c0.1,0.6,0.5,0.9,1.1,0.9c0.6,0,1-0.5,1-1.1c0-0.1,0-0.3,0-0.4
			c-0.5-4.8-0.9-9.5-1.4-14.3C9.3,9.1,8.9,8.6,8.2,8.7C7.6,8.7,7.3,9.2,7.3,10.3z M15.4,17.2C15.4,17.2,15.4,17.2,15.4,17.2
			c0-2.4,0-4.8,0-7.2c0-0.9-0.4-1.4-1-1.4c-0.6,0-1,0.5-1,1.3c0,4.8,0,9.6,0,14.4c0,0.9,0.3,1.3,1,1.4c0.7,0,1-0.4,1-1.3
			C15.4,22,15.4,19.6,15.4,17.2z"/>
		<path class="st0" d="M24.9,1.7c0,0.7-0.5,1.2-1.3,1.4c-3.3,0.6-6.6,1.1-10,1.7C11,5.2,8.4,5.6,5.8,6.1C4.8,6.3,4.1,5.8,3.9,5
			C3.8,4.2,4.3,3.5,5.2,3.3C6.6,3.1,8,2.8,9.4,2.6c0.5-0.1,0.9-0.2,1.1-0.8c0.2-0.7,0.7-1,1.4-1.1c1.5-0.2,2.9-0.4,4.4-0.7
			c0.6-0.1,1.1,0.1,1.5,0.5c0.5,0.4,1,0.6,1.7,0.4c1.2-0.3,2.5-0.5,3.8-0.7C24.2,0.1,25,0.8,24.9,1.7z"/>
	</g>
</g>
</svg>
