<?xml version="1.0" encoding="utf-8"?>
<!-- Generator: Adobe Illustrator 21.1.0, SVG Export Plug-In . SVG Version: 6.00 Build 0)  -->
<svg version="1.1" id="圖層_1" xmlns="http://www.w3.org/2000/svg" xmlns:xlink="http://www.w3.org/1999/xlink" x="0px" y="0px"
	 viewBox="0 0 100 100" style="enable-background:new 0 0 100 100;" xml:space="preserve">
<style type="text/css">
	.st0{fill:#B3B3B3;}
	.st1{fill:#4D4D4D;}
</style>
<rect class="st0" width="100" height="100"/>
<g id="SHbelb_1_">
	<g>
		<path class="st1" d="M51.2,27.3c0.6,0.2,1.1,0.6,1.6,1c2.1,2.2,4.3,4.3,6.5,6.5c0.6,0.6,0.8,1.3,0.6,2.1c-0.4,1.5-2.3,2-3.5,0.9
			c-1-1-2.1-2.1-3.1-3.1c-0.1-0.1-0.2-0.2-0.3-0.3c0,0.2,0,0.3,0,0.5c0,7.4,0,14.7,0,22.1c0,0.5-0.1,1.1-0.4,1.5
			c-0.5,0.7-1.4,1-2.3,0.7c-0.8-0.3-1.4-1-1.5-1.9c0-0.2,0-0.3,0-0.5c0-7.3,0-14.7,0-22c0-0.1,0-0.3,0-0.4c0,0-0.1-0.1-0.1-0.1
			c-0.1,0.1-0.1,0.2-0.2,0.3c-1,1-2,2-3.1,3.1c-0.6,0.6-1.4,0.8-2.2,0.5c-0.8-0.3-1.3-0.9-1.4-1.7c-0.1-0.7,0.2-1.3,0.7-1.8
			c1.5-1.5,3-3,4.5-4.5c0.7-0.7,1.4-1.3,2-2c0.4-0.5,0.9-0.9,1.5-1C50.7,27.3,51,27.3,51.2,27.3z"/>
		<path class="st1" d="M36.2,45.5c0,7.5,0,14.9,0,22.3c9.7,0,19.5,0,29.2,0c0-7.4,0-14.8,0-22.3c-0.1,0-0.2,0-0.4,0
			c-1.9,0-3.8,0-5.8,0c-1.1,0-1.9-0.6-2.2-1.5c-0.4-1.3,0.5-2.5,1.8-2.6c0.1,0,0.2,0,0.4,0c2.5,0,4.9,0,7.4,0c1.3,0,2.3,0.7,2.7,1.8
			c0.1,0.3,0.2,0.7,0.2,1.1c0,8.3,0,16.6,0,24.9c0,1.7-1.2,2.9-2.9,2.9c-10.6,0-21.2,0-31.8,0c-1.7,0-2.9-1.2-2.9-2.9
			c0-8.3,0-16.7,0-25c0-1.5,1.1-2.7,2.6-2.8c0.7,0,1.5,0,2.2,0c1.8,0,3.6,0,5.4,0c1.1,0,1.9,0.6,2.2,1.6c0.3,1.2-0.6,2.4-1.8,2.5
			c-0.4,0-0.9,0-1.4,0c-1.6,0-3.2,0-4.7,0C36.5,45.5,36.4,45.5,36.2,45.5z"/>
	</g>
</g>
</svg>
