<?xml version="1.0" encoding="utf-8"?>
<!-- Generator: Adobe Illustrator 21.1.0, SVG Export Plug-In . SVG Version: 6.00 Build 0)  -->
<svg version="1.1" id="圖層_1" xmlns="http://www.w3.org/2000/svg" xmlns:xlink="http://www.w3.org/1999/xlink" x="0px" y="0px"
	 viewBox="0 0 167 62" style="enable-background:new 0 0 167 62;" xml:space="preserve">
<style type="text/css">
	.st0{fill:#34D5FF;}
	.st1{fill:#86FFFF;}
</style>
<g>
	<g>
		<path class="st0" d="M109.9,60.6c0,0.8-0.9,1.4-2,1.4H6.9c-2.2,0-4.3-0.9-5.4-2.4c-1.3-1.7-1.2-3.8,0.2-5.4l19.9-21.8
			c0.7-0.8,0.7-2,0-2.8L1.7,7.8C0.2,6.2,0.1,4.1,1.4,2.4C2.6,0.9,4.6,0,6.9,0h15.4c1.1,0,2,0.6,2,1.4v0c0,0.8-0.9,1.4-2,1.4H6.9
			c-1.2,0-1.8,0.7-2,0.9C4.2,4.5,4.3,5.6,5,6.3l19.9,21.8c1.6,1.7,1.6,4,0,5.7L5,55.7c-0.7,0.8-0.8,1.8-0.1,2.7
			c0.2,0.3,0.9,0.9,2,0.9h101C109,59.3,109.9,59.9,109.9,60.6L109.9,60.6z"/>
	</g>
</g>
<g>
	<g>
		<path class="st0" d="M137.3,62h-13.6c-1.1,0-2-0.6-2-1.4v0c0-0.8,0.9-1.4,2-1.4h13.6c0.7,0,1.4-0.3,1.9-0.8l22.9-25.1
			c1.2-1.3,1.2-3.2,0-4.6L139.8,4.2c-0.8-0.9-2.1-1.4-3.4-1.4H44c-1.1,0-2-0.6-2-1.4v0C42,0.6,42.9,0,44,0h92.4c2.7,0,5.2,1,6.7,2.7
			l22.4,24.6c2,2.2,2,5.3,0,7.5l-22.9,25.1C141.3,61.2,139.4,62,137.3,62z"/>
	</g>
</g>
<g>
	<g>
		<path class="st1" d="M107,60.8c0,0.3-0.4,0.6-0.8,0.6H6.6c-1.8,0-3.5-0.7-4.4-2c-1.1-1.4-1-3.3,0.2-4.6L22.2,33c1-1.1,1-2.6,0-3.6
			L2.4,7.5C1.1,6.1,1,4.3,2.2,2.9c1-1.2,2.6-2,4.4-2h13.3c0.4,0,0.8,0.3,0.8,0.6v0c0,0.3-0.4,0.6-0.8,0.6H6.6c-1.2,0-2.3,0.5-3,1.4
			C2.7,4.5,2.8,5.9,3.7,6.9l19.9,21.8c1.3,1.5,1.3,3.4,0,4.9L3.7,55.4c-0.9,1-1,2.4-0.1,3.5c0.7,0.9,1.8,1.4,3,1.4h99.6
			C106.6,60.2,107,60.4,107,60.8L107,60.8z"/>
	</g>
</g>
<g>
	<path class="st1" d="M136.7,61.2h-12.1c-0.4,0-0.8-0.3-0.8-0.6v0c0-0.3,0.4-0.6,0.8-0.6h12.1c1.1,0,2.2-0.4,2.9-1.2l22.9-25.1
		c1.5-1.6,1.5-3.8,0-5.4L140.1,3.7c-1-1.1-2.7-1.8-4.4-1.8H48c-0.4,0-0.8-0.3-0.8-0.6v0c0-0.3,0.4-0.6,0.8-0.6h87.7
		c2.3,0,4.4,0.9,5.7,2.3l22.4,24.6c1.8,2,1.8,4.7,0,6.6l-22.9,25.1C139.9,60.6,138.3,61.2,136.7,61.2z"/>
</g>
</svg>
