<?xml version="1.0" encoding="utf-8"?>
<!-- Generator: Adobe Illustrator 23.0.0, SVG Export Plug-In . SVG Version: 6.00 Build 0)  -->
<svg version="1.1" id="圖層_1" xmlns="http://www.w3.org/2000/svg" xmlns:xlink="http://www.w3.org/1999/xlink" x="0px" y="0px"
	 viewBox="0 0 872 718" style="enable-background:new 0 0 872 718;" xml:space="preserve">
<style type="text/css">
	.st0{fill:none;stroke:#FF0000;stroke-miterlimit:10;}
	.st1{fill:#DB2828;stroke:#FF0000;stroke-miterlimit:10;}
</style>
<rect x="373.23" y="636.24" class="st0" width="105.08" height="25.73"/>
<rect x="374.29" y="607.87" class="st0" width="102.87" height="22.88"/>
<rect x="375.4" y="579.74" class="st0" width="100.67" height="22.88"/>
<polygon class="st0" points="477.99,635.95 373.42,636.24 375.28,630.74 475.86,630.74 "/>
<polygon class="st0" points="476.91,607.59 374.74,607.87 376.56,602.62 474.83,602.62 "/>
<polygon class="st0" points="475.91,579.46 375.4,579.74 377.18,574.49 473.87,574.49 "/>
<polygon class="st1" points="797.65,549.37 754.82,526.68 754.82,397.03 698.89,399.83 693.85,399.35 693.85,397.03 754.82,397.03 
	708.98,395.24 693.85,395.92 693.85,325.97 694.63,325.97 737.5,63.31 737.5,56.64 623.15,56.64 623.15,48.03 225.97,48.03 
	225.97,56.64 116.83,56.64 116.83,63.31 158.3,325.97 158.32,325.97 158.32,395.91 143.32,395.24 97.48,397.03 158.32,397.03 
	158.32,399.37 153.41,399.83 97.48,397.03 97.48,525.73 51.65,549.37 51.65,648.37 346.67,648.37 345.32,679.62 371.07,679.62 
	372.42,648.37 372.43,648.37 371.07,679.62 376.56,648.37 474.77,648.37 480.35,680.11 480.33,679.62 506.02,679.62 504.73,648.37 
	797.65,648.37 "/>
</svg>
