<?xml version="1.0" encoding="utf-8"?>
<!-- Generator: Adobe Illustrator 21.1.0, SVG Export Plug-In . SVG Version: 6.00 Build 0)  -->
<svg version="1.1" id="圖層_1" xmlns="http://www.w3.org/2000/svg" xmlns:xlink="http://www.w3.org/1999/xlink" x="0px" y="0px"
	 viewBox="0 0 135 80" style="enable-background:new 0 0 135 80;" xml:space="preserve">
<style type="text/css">
	.st0{fill:#000042;}
	.st1{fill:#000042;stroke:url(#);stroke-miterlimit:10;}
	.st2{fill:#E47071;}
	.st3{fill:#EB7272;}
	.st4{fill:#FFFFFF;}
	.st5{fill:#FFFFFF;stroke:#E0433A;stroke-width:0.5;stroke-miterlimit:10;}
</style>
<path class="st0" d="M129.1,80.4L6,80.5L6,16C6,8.5,12.1,2.5,19.6,2.5l95.9-0.1c7.5,0,13.6,6.1,13.6,13.6L129.1,80.4z"/>
<path class="st2" d="M112.2,0H22.9C10.3,0,0,9.6,0,21.4V75h6l0-7.5h0v-46c0-8.7,7.6-15.9,16.9-15.9h89.3c9.3,0,16.9,7.1,16.9,15.9
	v46h0l0,7.6h5.9V21.4C135,9.6,124.8,0,112.2,0z"/>
<path class="st5" d="M113,1.5H21.8c-11.4,0-20.6,9.1-20.6,20.4V75h3l0-3h0V21.8c0-9.6,7.9-17.4,17.6-17.4H113
	c9.7,0,17.6,7.8,17.6,17.4V72h0l0,3h3V21.8C133.6,10.6,124.4,1.5,113,1.5z"/>
</svg>
