<?xml version="1.0" encoding="utf-8"?>
<!-- Generator: Adobe Illustrator 21.1.0, SVG Export Plug-In . SVG Version: 6.00 Build 0)  -->
<svg version="1.1" id="圖層_1" xmlns="http://www.w3.org/2000/svg" xmlns:xlink="http://www.w3.org/1999/xlink" x="0px" y="0px"
	 viewBox="0 0 45 60" style="enable-background:new 0 0 45 60;" xml:space="preserve">
<style type="text/css">
	.st0{fill:#000042;}
	.st1{fill:#000042;stroke:url(#);stroke-miterlimit:10;}
	.st2{fill:#E47071;}
	.st3{fill:#EB7272;}
	.st4{fill:#FFFFFF;}
	.st5{fill:#FFFFFF;stroke:#E0433A;stroke-width:0.5;stroke-miterlimit:10;}
</style>
<path class="st0" d="M42.9,60L-82,60.1l0-45.5c0-6.5,5.2-11.7,11.7-11.7l94.9-0.1c10.1,0,18.3,8.2,18.3,18.3L42.9,60z"/>
<g>
	<path class="st2" d="M0.7,4.7c0.5,0.6,1.2,1,2,1h21.6c8.4,0,15.3,7.1,15.3,15.9v35.7c0,1.5,1.2,2.8,2.6,2.8h0.1
		c1.5,0,2.6-1.2,2.6-2.8V21.6C45,9.7,35.7,0,24.3,0H2.7C0.4,0-0.8,2.8,0.7,4.7C0.7,4.6,0.7,4.6,0.7,4.7z"/>
</g>
<g>
	<path class="st5" d="M40.8,22.2v31.3c0,0.8,0.7,1.5,1.5,1.5l0,0c0.8,0,1.5-0.7,1.5-1.5V22.2c0-11.7-9.5-21.1-21.1-21.1H5.9
		C5,1.1,4.4,1.8,4.4,2.6v0C4.4,3.4,5,4,5.9,4h16.7C32.6,4,40.8,12.2,40.8,22.2z"/>
</g>
</svg>
