<?xml version="1.0" encoding="utf-8"?>
<!-- Generator: Adobe Illustrator 21.1.0, SVG Export Plug-In . SVG Version: 6.00 Build 0)  -->
<svg version="1.1" id="圖層_1" xmlns="http://www.w3.org/2000/svg" xmlns:xlink="http://www.w3.org/1999/xlink" x="0px" y="0px"
	 viewBox="0 0 45 60" style="enable-background:new 0 0 45 60;" xml:space="preserve">
<style type="text/css">
	.st0{opacity:0.5;fill:#000042;}
	.st1{opacity:0.5;}
	.st2{fill:#E47071;}
	.st3{fill:#FFFFFF;stroke:#E0433A;stroke-width:0.5;stroke-miterlimit:10;}
</style>
<path class="st0" d="M2.1,21.1c0-10.1,7.2-18.3,16-18.3l83.1,0.1c5.7,0,10.2,5.2,10.2,11.7v45.5L2.1,60L2.1,21.1z"/>
<g class="st1">
	<path class="st2" d="M44.3,4.7c1.5-1.9,0.3-4.7-2-4.7L20.7,0C9.3,0,0,9.7,0.1,21.6v35.7c0,1.6,1.1,2.8,2.6,2.8h0.1
		c1.4,0,2.6-1.3,2.6-2.8V21.6c0-8.8,6.9-15.9,15.3-15.9h21.6C43.1,5.7,43.8,5.3,44.3,4.7C44.3,4.6,44.3,4.6,44.3,4.7z"/>
</g>
<g class="st1">
	<path class="st3" d="M22.4,4h16.7c0.9,0,1.5-0.6,1.5-1.4l0,0c0-0.8-0.6-1.5-1.5-1.5H22.3c-11.6,0-21.1,9.4-21.1,21.1v31.3
		c0,0.8,0.7,1.5,1.5,1.5l0,0c0.8,0,1.5-0.7,1.5-1.5V22.2C4.2,12.2,12.4,4,22.4,4z"/>
</g>
</svg>
