<?xml version="1.0" encoding="utf-8"?>
<!-- Generator: Adobe Illustrator 21.1.0, SVG Export Plug-In . SVG Version: 6.00 Build 0)  -->
<svg version="1.1" id="圖層_1" xmlns="http://www.w3.org/2000/svg" xmlns:xlink="http://www.w3.org/1999/xlink" x="0px" y="0px"
	 viewBox="0 0 380 75" style="enable-background:new 0 0 380 75;" xml:space="preserve">
<style type="text/css">
	.st0{fill:#000042;}
	.st1{fill:#E47071;}
	.st2{fill:#EB7272;}
	.st3{fill:#FFFFFF;}
	.st4{fill:#FFFFFF;stroke:#E0433A;stroke-width:0.5;stroke-miterlimit:10;}
</style>
<path class="st0" d="M354.7,400H25.3C11.3,400,0,388.7,0,374.7V25.3C0,11.3,11.3,0,25.3,0h329.4c14,0,25.3,11.3,25.3,25.3v349.4
	C380,388.7,368.7,400,354.7,400z"/>
<g>
	<path class="st1" d="M380,75H0V22.7C0,10.2,10.2,0,22.7,0h334.7C369.9,0,380,10.2,380,22.7V75z M5.9,69.1h368.2V22.7
		c0-9.3-7.5-16.8-16.7-16.8H22.7c-9.2,0-16.7,7.5-16.7,16.8V69.1z"/>
</g>
<g>
	<path class="st4" d="M378.5,74.2H1.5v-52c0-11.4,9.2-20.6,20.6-20.6h335.7c11.4,0,20.6,9.2,20.6,20.6V74.2z M4.5,71.2h370.9v-49
		c0-9.7-7.9-17.6-17.6-17.6H22.2c-9.7,0-17.6,7.9-17.6,17.6V71.2z"/>
</g>
</svg>
