<?xml version="1.0" encoding="utf-8"?>
<!-- Generator: Adobe Illustrator 21.1.0, SVG Export Plug-In . SVG Version: 6.00 Build 0)  -->
<svg version="1.1" id="圖層_1" xmlns="http://www.w3.org/2000/svg" xmlns:xlink="http://www.w3.org/1999/xlink" x="0px" y="0px"
	 viewBox="0 0 30 30" style="enable-background:new 0 0 30 30;" xml:space="preserve">
<style type="text/css">
	.st0{fill:#000042;}
	.st1{fill:#E47071;}
	.st2{fill:#EB7272;}
</style>
<g>
	<path class="st2" d="M15.9,13.2c-0.1,0.3-0.2,0.6-0.3,0.9c-0.3,0.7-0.6,1.5-0.8,2.2c0,0.1,0,0.3,0,0.4c0.5,0.9,0.7,1.9,0.5,3
		c0,0.1,0,0.3,0.1,0.4c1,2,2.6,3.6,4,5.3c0.7,0.8,1.3,1.5,2,2.3c0.3,0.4,0.3,0.7-0.1,1.1c-0.1,0-0.1,0.1-0.2,0.1
		c-0.4,0.3-0.7,0.3-1,0c-2-1.8-4-3.7-6-5.5c0,0-0.1,0-0.1-0.1c-0.2,0.4-0.3,0.9-0.5,1.3c-0.6,1.6-1.1,3.2-1.7,4.7
		c-0.2,0.5-0.5,0.7-1,0.5c-0.1,0-0.1-0.1-0.2-0.1c-0.4-0.2-0.5-0.4-0.4-0.8c0.4-1.9,0.9-3.8,1.3-5.6c0.1-0.6,0.3-1.2,0.4-1.8
		c0-0.1,0-0.3-0.1-0.4c-2-2.3-2.5-5-1.5-7.9c0.2-0.6,0.5-1.2,0.7-1.8c0-0.1,0-0.2,0-0.4C10.2,8,9.4,4.9,8.6,1.9
		C8.5,1.6,8.5,1.3,8.5,1c0-0.3,0.2-0.6,0.5-0.7c0.3-0.1,0.7-0.1,0.9,0.1c0.2,0.2,0.4,0.6,0.5,0.9c0.7,2.1,1.3,4.2,2,6.3
		c0.2,0.6,0.3,1.1,0.5,1.7c0,0.1,0.2,0.2,0.3,0.3c0.3,0.1,0.6,0.3,0.9,0.4c1.6,0.5,3,1.5,4.4,2.4c1.6,1,3.2,2,4.8,3
		c0.2,0.1,0.3,0.2,0.5,0.4c0.3,0.3,0.4,0.6,0.3,0.9c-0.2,0.4-0.6,0.7-1,0.6c-0.3-0.1-0.6-0.2-0.9-0.3c-2-1.1-4-2.3-6-3.5
		C16.1,13.3,16,13.3,15.9,13.2z"/>
	<path class="st2" d="M16.1,9.8c-1.4,0-2.5-1.1-2.5-2.5c0-1.4,1.1-2.4,2.5-2.4c1.4,0,2.5,1.1,2.5,2.5C18.6,8.7,17.4,9.8,16.1,9.8z"
		/>
</g>
</svg>
