<?xml version="1.0" encoding="utf-8"?>
<!-- Generator: Adobe Illustrator 21.1.0, SVG Export Plug-In . SVG Version: 6.00 Build 0)  -->
<svg version="1.1" id="圖層_1" xmlns="http://www.w3.org/2000/svg" xmlns:xlink="http://www.w3.org/1999/xlink" x="0px" y="0px"
	 viewBox="0 0 30 30" style="enable-background:new 0 0 30 30;" xml:space="preserve">
<style type="text/css">
	.st0{fill:#000042;}
	.st1{fill:#E47071;}
	.st2{fill:#EB7272;}
</style>
<path class="st2" d="M18.9,28.1C18.9,28.1,18.9,28.1,18.9,28.1c-0.5,0-1,0-1.5,0c0-2.1,0-12,0-14.1h0V9.2c0-0.8,0-1.6,0-2.4
	c0-0.1,0.1-0.2,0.1-0.3c0.6-0.7,1-1.6,0.9-2.5c0,0,0-0.4-0.1-0.6c-0.1-0.6-0.4-1.1-0.8-1.5c-0.6-0.6-1.3-1-2.3-1.1
	c-0.1,0-0.3,0-0.4,0c-0.1,0-0.3,0-0.4,0c-1.5,0.3-2.7,1.6-2.7,3.1h0c0,0.9,0.3,1.7,0.9,2.4c0.1,0.1,0.2,0.3,0.2,0.4
	c0,2.4,0,19.2,0,21.3c-0.5,0-1,0-1.5,0c0,0.5,0,1,0,1.5c2.6,0,5.2,0,7.7,0C18.9,29.2,18.9,28.7,18.9,28.1
	C18.9,28.1,18.9,28.1,18.9,28.1z"/>
</svg>
