<?xml version="1.0" encoding="utf-8"?>
<!-- Generator: Adobe Illustrator 21.1.0, SVG Export Plug-In . SVG Version: 6.00 Build 0)  -->
<svg version="1.1" id="圖層_1" xmlns="http://www.w3.org/2000/svg" xmlns:xlink="http://www.w3.org/1999/xlink" x="0px" y="0px"
	 viewBox="0 0 30 30" style="enable-background:new 0 0 30 30;" xml:space="preserve">
<style type="text/css">
	.st0{fill:#000042;}
	.st1{fill:#E47071;}
	.st2{fill:#EB7272;}
</style>
<g>
	<path class="st2" d="M10.2,25.7c-0.8-0.5-1.4-1.2-1.9-1.9c-1-1.5-1.6-3.2-1.6-5.1c0-1.9,0.6-3.6,1.9-5c0.8-0.8,1.6-1.6,2.4-2.3
		c1.3-1.2,2.5-2.6,3.1-4.3C14.7,5.6,14.7,4,14,2.5c0,0,0-0.1-0.1-0.2c0.8,0.3,1.4,0.7,2,1.2C17.6,5,18.7,6.9,19,9.1
		c0.2,1.7-0.1,3.3-1.1,4.8c-0.5,0.8-0.9,1.6-0.7,2.6c0.2,1.2,1.2,2.1,2.5,2.3c1,0.2,2.2-0.4,2.8-1.4c0.4-0.6,0.4-0.9,0.5-2
		c0.1,0.2,0.3,0.5,0.4,0.7c0.8,1.9,0.7,3.8-0.1,5.7c-0.5,1.3-1.2,2.4-2.2,3.4c-1.6,1.4-3.4,2.2-5.5,2.3c-0.1,0-0.2,0-0.2,0
		c-0.2-1.7-1-3.1-2-4.4c-1.2-1.4-1.6-3.1-1.5-4.8c0-0.5,0.1-1.1,0.2-1.6c-1.2,1.2-2,2.6-2.3,4.3C9.3,22.5,9.5,24.1,10.2,25.7z"/>
</g>
</svg>
