<?xml version="1.0" encoding="utf-8"?>
<!-- Generator: Adobe Illustrator 21.1.0, SVG Export Plug-In . SVG Version: 6.00 Build 0)  -->
<svg version="1.1" id="圖層_1" xmlns="http://www.w3.org/2000/svg" xmlns:xlink="http://www.w3.org/1999/xlink" x="0px" y="0px"
	 viewBox="0 0 30 30" style="enable-background:new 0 0 30 30;" xml:space="preserve">
<style type="text/css">
	.st0{fill:#000042;}
	.st1{fill:#E47071;}
	.st2{fill:#EB7272;}
</style>
<g>
	<path class="st2" d="M23.2,16.4C23.3,16.4,23.2,16.4,23.2,16.4c-2.1-0.9-4.8,0.1-6.1,1.9c-0.5,0.7-0.8,1.5-0.6,2.4
		c0.2,1.3,1,2,2.2,2.4c2,0.6,4.5-0.3,5.7-2.1c0.5-0.7,0.7-1.4,0.6-2.2c-0.1-1.6-0.1-3.3-0.2-4.9c-0.1-3.1-0.2-6.1-0.4-9.2
		c0-0.3,0-0.7-0.1-1c-0.1-0.7-0.6-0.9-1.2-0.6C19,4.8,14.8,6.6,10.6,8.3c-0.5,0.2-0.9,0.6-1,1.1c-0.1,0.5-0.1,0.9-0.1,1.4
		c0.1,3.3,0.3,6.5,0.4,9.8c0,0.1,0,0.1,0,0.2c-0.1,0-0.1,0-0.1,0c-0.9-0.3-1.8-0.3-2.7-0.1c-1.6,0.4-2.8,1.3-3.5,2.8
		c-0.8,1.7-0.1,3.4,1.7,4.1c2,0.7,4.7-0.2,5.9-2.1c0.4-0.6,0.7-1.2,0.6-1.9c-0.1-1.9-0.1-3.8-0.2-5.6c-0.1-1.7-0.1-3.4-0.2-5
		c0-0.9,0.4-1.5,1.2-1.9c3.1-1.3,6.2-2.5,9.2-3.8c0.5-0.2,0.9,0,1,0.4C23,7.8,23,8.1,23,8.3c0.1,2,0.2,4,0.2,6
		C23.3,15,23.2,15.7,23.2,16.4z"/>
	<path class="st2" d="M23.2,16.4c0-0.7,0-1.4,0-2.1c-0.1-2-0.1-4-0.2-6c0-0.2,0-0.5-0.1-0.7c-0.2-0.5-0.6-0.6-1-0.4
		c-3.1,1.3-6.2,2.5-9.2,3.8c-0.8,0.3-1.2,1-1.2,1.9c0.1,1.7,0.1,3.4,0.2,5c0.1,1.9,0.2,3.8,0.2,5.6c0,0.7-0.2,1.4-0.6,1.9
		c-1.3,1.9-3.9,2.8-5.9,2.1c-1.8-0.6-2.5-2.3-1.7-4.1c0.7-1.5,2-2.3,3.5-2.8c0.9-0.2,1.8-0.2,2.7,0.1c0,0,0.1,0,0.1,0
		c0-0.1,0-0.1,0-0.2c-0.1-3.3-0.3-6.5-0.4-9.8c0-0.5,0-1,0.1-1.4c0.1-0.5,0.5-0.9,1-1.1c4.2-1.8,8.4-3.5,12.6-5.3
		c0.6-0.3,1.1,0,1.2,0.6c0.1,0.3,0.1,0.7,0.1,1c0.1,3.1,0.3,6.1,0.4,9.2c0.1,1.6,0.1,3.3,0.2,4.9c0,0.8-0.2,1.6-0.6,2.2
		c-1.2,1.8-3.7,2.7-5.7,2.1c-1.2-0.4-2-1.1-2.2-2.4c-0.1-0.9,0.1-1.7,0.6-2.4C18.4,16.5,21.2,15.5,23.2,16.4
		C23.2,16.4,23.3,16.4,23.2,16.4z"/>
</g>
</svg>
