<?xml version="1.0" encoding="utf-8"?>
<!-- Generator: Adobe Illustrator 21.1.0, SVG Export Plug-In . SVG Version: 6.00 Build 0)  -->
<svg version="1.1" id="圖層_1" xmlns="http://www.w3.org/2000/svg" xmlns:xlink="http://www.w3.org/1999/xlink" x="0px" y="0px"
	 viewBox="0 0 380 100" style="enable-background:new 0 0 380 100;" xml:space="preserve">
<style type="text/css">
	.st0{fill:#000042;}
	.st1{fill:#E47071;}
	.st2{fill:#FFFFFF;stroke:#E0433A;stroke-width:0.5;stroke-miterlimit:10;}
</style>
<path class="st0" d="M380,100V26.4c0-14-11.3-25.3-25.3-25.3H25.3C11.3,1.1,0,12.4,0,26.4V100H380z"/>
<g>
	<path class="st1" d="M380,100H0V22.8C0,10.3,10.2,0.1,22.7,0.1h334.7c12.5,0,22.6,10.2,22.6,22.7V100z M5.9,94.1h368.2V22.8
		c0-9.3-7.5-16.8-16.7-16.8H22.7C13.5,6,6,13.5,6,22.8L5.9,94.1L5.9,94.1z"/>
</g>
<g>
	<path class="st2" d="M378.5,99.2H1.5V22.3c0-11.4,9.2-20.6,20.6-20.6h335.7c11.4,0,20.6,9.2,20.6,20.6L378.5,99.2L378.5,99.2z
		 M4.5,96.2h370.9V22.3c0-9.7-7.9-17.6-17.6-17.6H22.2c-9.7,0-17.6,7.9-17.6,17.6v73.9H4.5z"/>
</g>
</svg>
