<?xml version="1.0" encoding="utf-8"?>
<!-- Generator: Adobe Illustrator 21.1.0, SVG Export Plug-In . SVG Version: 6.00 Build 0)  -->
<svg version="1.1" id="圖層_1" xmlns="http://www.w3.org/2000/svg" xmlns:xlink="http://www.w3.org/1999/xlink" x="0px" y="0px"
	 viewBox="0 0 30 30" style="enable-background:new 0 0 30 30;" xml:space="preserve">
<style type="text/css">
	.st0{fill:#000042;}
	.st1{fill:#E47071;}
	.st2{fill:#EB7272;}
</style>
<g>
	<g>
		<path class="st2" d="M9.9,9.5c3.6,3.5,7.1,7.1,10.7,10.6c-1.1,1-2.1,2.1-3.3,3.1c-1,0.8-2.5,0.6-3.5-0.2c-0.5-0.4-0.9-0.9-1.4-1.3
			c-0.7-0.7-1.5-0.7-2.1,0c-0.5,0.5-0.9,1.1-1.2,1.7c-0.8,1.8-1.6,3.7-3.3,4.9c-0.8,0.6-1.7,1-2.6,1.3c-2,0.6-3.3-0.8-2.8-2.8
			c0.5-1.8,1.6-3.3,3.1-4.3c0.9-0.6,1.9-1,2.9-1.5c0.3-0.1,0.6-0.2,0.8-0.3c1.8-1.2,2.2-2.3,0.7-3.7c-0.8-0.7-1.5-1.4-1.5-2.6
			c0-0.8,0.2-1.6,0.8-2.2C8,11.3,9,10.4,9.9,9.5z M4,27.6c0.8,0,1.5-0.7,1.5-1.5c0-0.8-0.7-1.5-1.6-1.5c-0.9,0-1.5,0.7-1.5,1.5
			C2.4,26.9,3.1,27.6,4,27.6z"/>
		<path class="st2" d="M20.5,15.9c0.7-0.7,1.5-1.4,2.5-2.4c-0.6,0-1,0.1-1.4,0.1c-1,0-1.4-0.6-0.8-1.4c0.3-0.5,0.7-0.9,1-1.3
			c0.2-0.3,0.4-0.5,0.6-0.8c0.1-0.3,0.3-0.7,0.1-0.8C22.3,9,21.8,8.9,21.5,9c-0.7,0.2-1.4,0.5-2.1,0.7c-0.3,0.1-0.6,0.1-0.9,0.1
			c-0.6-0.1-0.9-0.4-0.6-1c0.2-0.5,0.4-1,0.5-1.4c0-0.4-0.3-0.8-0.5-1.1c0-0.1-0.6,0.2-0.8,0.3c-1,1-2,2-3,3
			c-0.7-0.7-1.4-1.4-2.1-2.1c0,0,0.2-0.2,0.3-0.4c2-2,4-4,6-6c1-1,1.7-1,2.7,0c2.7,2.7,5.3,5.3,8,8c1,1,1,1.7,0,2.7
			c-2.1,2.1-4.3,4.3-6.4,6.4C21.9,17.4,21.2,16.7,20.5,15.9z"/>
	</g>
</g>
</svg>
