<?xml version="1.0" encoding="utf-8"?>
<!-- Generator: Adobe Illustrator 21.1.0, SVG Export Plug-In . SVG Version: 6.00 Build 0)  -->
<svg version="1.1" id="圖層_1" xmlns="http://www.w3.org/2000/svg" xmlns:xlink="http://www.w3.org/1999/xlink" x="0px" y="0px"
	 viewBox="0 0 30 30" style="enable-background:new 0 0 30 30;" xml:space="preserve">
<style type="text/css">
	.st0{fill:#000042;}
	.st1{fill:#E47071;}
	.st2{fill:#EB7272;}
</style>
<g>
	<path class="st2" d="M4,26.1c0.8-2.2,1.7-4.2,2.5-6.3c1.1-2.9,2.2-5.8,3.4-8.7c0.1-0.3,0.3-0.5,0.7-0.5c0.8,0,1.6,0,2.3,0
		c0.4,0,0.6,0.2,0.7,0.5c1.6,3.9,3.1,7.9,4.7,11.8c0.4,1,0.8,2,1.2,3.1c-1.1,0-2.1,0-3.2,0c-0.1,0-0.3-0.2-0.3-0.4
		c-0.4-0.9-0.7-1.8-1-2.7c-0.1-0.3-0.3-0.5-0.7-0.5c-1.8,0-3.5,0-5.3,0c-0.3,0-0.5,0.1-0.6,0.4c-0.3,0.9-0.6,1.8-1,2.7
		C7.4,25.8,7.1,26,7,26C6,26.1,5.1,26.1,4,26.1z M13.8,19.9c-0.7-1.9-1.4-3.8-2.1-5.7c-0.7,2-1.4,3.8-2.1,5.7
		C11,19.9,12.3,19.9,13.8,19.9z"/>
	<path class="st2" d="M16.1,6.8c0.5-1.7,1.5-2.8,3.3-3c1.2-0.1,2.5-0.1,3.7,0.1c1.7,0.3,2.5,1.4,2.5,3.3c0,1.5,0,3,0,4.5
		c0,1.1,0.1,2.3,0.7,3.4c-1,0-1.9,0-2.7,0c-0.1,0-0.2-0.2-0.3-0.3c-0.1-0.2-0.2-0.5-0.2-0.7c-0.8,0.4-1.6,0.8-2.4,1.1
		c-0.8,0.3-1.6,0.2-2.5,0c-1.5-0.4-2.3-1.5-2.4-3C15.8,10.6,16.5,9.5,18,9c1.3-0.4,2.6-0.6,4-1c0.3-0.1,0.7,0,0.8-0.5
		c0.1-0.6-0.2-1.2-0.7-1.4c-1.2-0.6-2.5-0.2-3.2,0.9c-0.1,0.1-0.3,0.2-0.4,0.2C17.7,7.1,17,6.9,16.1,6.8z M22.8,9.7
		c-1,0.3-2,0.5-3,0.8c-0.7,0.2-1,0.6-1,1.2c0,0.6,0.4,1.2,1,1.4c1.3,0.5,2.8-0.5,3-1.9C22.8,10.7,22.8,10.2,22.8,9.7z"/>
</g>
</svg>
